<svg width="71" height="18" viewBox="0 0 71 18" fill="none" xmlns="http://www.w3.org/2000/svg">
<path d="M29.8864 15H28.4091L32.6818 3.36364H34.1364L38.4091 15H36.9318L33.4545 5.20455H33.3636L29.8864 15ZM30.4318 10.4545H36.3864V11.7045H30.4318V10.4545ZM43.5852 15.1818C42.767 15.1818 42.0625 14.9886 41.4716 14.6023C40.8807 14.2159 40.4261 13.6837 40.108 13.0057C39.7898 12.3277 39.6307 11.553 39.6307 10.6818C39.6307 9.79545 39.7936 9.01326 40.1193 8.33523C40.4489 7.65341 40.9072 7.12121 41.4943 6.73864C42.0852 6.35227 42.7746 6.15909 43.5625 6.15909C44.1761 6.15909 44.7292 6.27273 45.2216 6.5C45.714 6.72727 46.1174 7.04545 46.4318 7.45455C46.7462 7.86364 46.9413 8.34091 47.017 8.88636H45.6761C45.5739 8.48864 45.3466 8.13636 44.9943 7.82955C44.6458 7.51894 44.1761 7.36364 43.5852 7.36364C43.0625 7.36364 42.6042 7.5 42.2102 7.77273C41.8201 8.04167 41.5152 8.42235 41.2955 8.91477C41.0795 9.40341 40.9716 9.97727 40.9716 10.6364C40.9716 11.3106 41.0777 11.8977 41.2898 12.3977C41.5057 12.8977 41.8087 13.286 42.1989 13.5625C42.5928 13.839 43.0549 13.9773 43.5852 13.9773C43.9337 13.9773 44.25 13.9167 44.5341 13.7955C44.8182 13.6742 45.0587 13.5 45.2557 13.2727C45.4527 13.0455 45.5928 12.7727 45.6761 12.4545H47.017C46.9413 12.9697 46.7538 13.4337 46.4545 13.8466C46.1591 14.2557 45.767 14.5814 45.2784 14.8239C44.7936 15.0625 44.2292 15.1818 43.5852 15.1818ZM52.5227 15.1818C51.7045 15.1818 51 14.9886 50.4091 14.6023C49.8182 14.2159 49.3636 13.6837 49.0455 13.0057C48.7273 12.3277 48.5682 11.553 48.5682 10.6818C48.5682 9.79545 48.7311 9.01326 49.0568 8.33523C49.3864 7.65341 49.8447 7.12121 50.4318 6.73864C51.0227 6.35227 51.7121 6.15909 52.5 6.15909C53.1136 6.15909 53.6667 6.27273 54.1591 6.5C54.6515 6.72727 55.0549 7.04545 55.3693 7.45455C55.6837 7.86364 55.8788 8.34091 55.9545 8.88636H54.6136C54.5114 8.48864 54.2841 8.13636 53.9318 7.82955C53.5833 7.51894 53.1136 7.36364 52.5227 7.36364C52 7.36364 51.5417 7.5 51.1477 7.77273C50.7576 8.04167 50.4527 8.42235 50.233 8.91477C50.017 9.40341 49.9091 9.97727 49.9091 10.6364C49.9091 11.3106 50.0152 11.8977 50.2273 12.3977C50.4432 12.8977 50.7462 13.286 51.1364 13.5625C51.5303 13.839 51.9924 13.9773 52.5227 13.9773C52.8712 13.9773 53.1875 13.9167 53.4716 13.7955C53.7557 13.6742 53.9962 13.5 54.1932 13.2727C54.3902 13.0455 54.5303 12.7727 54.6136 12.4545H55.9545C55.8788 12.9697 55.6913 13.4337 55.392 13.8466C55.0966 14.2557 54.7045 14.5814 54.2159 14.8239C53.7311 15.0625 53.1667 15.1818 52.5227 15.1818ZM57.9148 15V6.27273H59.2102V7.59091H59.3011C59.4602 7.15909 59.7481 6.80871 60.1648 6.53977C60.5814 6.27083 61.0511 6.13636 61.5739 6.13636C61.6723 6.13636 61.7955 6.13826 61.9432 6.14205C62.0909 6.14583 62.2027 6.15152 62.2784 6.15909V7.52273C62.233 7.51136 62.1288 7.49432 61.9659 7.47159C61.8068 7.44508 61.6383 7.43182 61.4602 7.43182C61.036 7.43182 60.6572 7.52083 60.3239 7.69886C59.9943 7.87311 59.733 8.11553 59.5398 8.42614C59.3504 8.73295 59.2557 9.08333 59.2557 9.47727V15H57.9148ZM66.4361 15.2045C65.883 15.2045 65.3812 15.1004 64.9304 14.892C64.4796 14.6799 64.1217 14.375 63.8565 13.9773C63.5914 13.5758 63.4588 13.0909 63.4588 12.5227C63.4588 12.0227 63.5573 11.6174 63.7543 11.3068C63.9512 10.9924 64.2145 10.7462 64.544 10.5682C64.8736 10.3902 65.2372 10.2576 65.6349 10.1705C66.0365 10.0795 66.4399 10.0076 66.8452 9.95455C67.3755 9.88636 67.8054 9.83523 68.1349 9.80114C68.4683 9.76326 68.7107 9.70076 68.8622 9.61364C69.0175 9.52652 69.0952 9.375 69.0952 9.15909V9.11364C69.0952 8.55303 68.9418 8.11742 68.6349 7.80682C68.3319 7.49621 67.8717 7.34091 67.2543 7.34091C66.6141 7.34091 66.1122 7.48106 65.7486 7.76136C65.3849 8.04167 65.1293 8.34091 64.9815 8.65909L63.7088 8.20455C63.9361 7.67424 64.2391 7.26136 64.6179 6.96591C65.0005 6.66667 65.4171 6.45833 65.8679 6.34091C66.3224 6.2197 66.7694 6.15909 67.2088 6.15909C67.4891 6.15909 67.8111 6.19318 68.1747 6.26136C68.5421 6.32576 68.8963 6.46023 69.2372 6.66477C69.5819 6.86932 69.8679 7.17803 70.0952 7.59091C70.3224 8.00379 70.4361 8.55682 70.4361 9.25V15H69.0952V13.8182H69.027C68.9361 14.0076 68.7846 14.2102 68.5724 14.4261C68.3603 14.642 68.0781 14.8258 67.7259 14.9773C67.3736 15.1288 66.9437 15.2045 66.4361 15.2045ZM66.6406 14C67.1709 14 67.6179 13.8958 67.9815 13.6875C68.349 13.4792 68.6255 13.2102 68.8111 12.8807C69.0005 12.5511 69.0952 12.2045 69.0952 11.8409V10.6136C69.0384 10.6818 68.9134 10.7443 68.7202 10.8011C68.5308 10.8542 68.3111 10.9015 68.0611 10.9432C67.8149 10.9811 67.5743 11.0152 67.3395 11.0455C67.1084 11.072 66.9209 11.0947 66.777 11.1136C66.4285 11.1591 66.1027 11.233 65.7997 11.3352C65.5005 11.4337 65.258 11.5833 65.0724 11.7841C64.8906 11.9811 64.7997 12.25 64.7997 12.5909C64.7997 13.0568 64.9721 13.4091 65.3168 13.6477C65.6652 13.8826 66.1065 14 66.6406 14Z" fill="#3F3F3F"/>
<path d="M9 8.25C9.62132 8.25 10.125 7.74632 10.125 7.125C10.125 6.50368 9.62132 6 9 6C8.37868 6 7.875 6.50368 7.875 7.125C7.875 7.74632 8.37868 8.25 9 8.25Z" fill="#231F20"/>
<path d="M9 1.5C7.41904 1.49992 5.90194 2.12382 4.77843 3.23609C3.65492 4.34837 3.01581 5.85912 3 7.44C3 11.55 8.2875 16.125 8.5125 16.32C8.64835 16.4362 8.82124 16.5 9 16.5C9.17876 16.5 9.35165 16.4362 9.4875 16.32C9.75 16.125 15 11.55 15 7.44C14.9842 5.85912 14.3451 4.34837 13.2216 3.23609C12.0981 2.12382 10.581 1.49992 9 1.5ZM9 9.75C8.48082 9.75 7.97331 9.59605 7.54163 9.30761C7.10995 9.01917 6.7735 8.6092 6.57482 8.12954C6.37614 7.64989 6.32415 7.12209 6.42544 6.61289C6.52672 6.10369 6.77673 5.63596 7.14384 5.26885C7.51096 4.90173 7.97869 4.65173 8.48789 4.55044C8.99709 4.44915 9.52489 4.50114 10.0045 4.69982C10.4842 4.8985 10.8942 5.23495 11.1826 5.66663C11.471 6.09831 11.625 6.60582 11.625 7.125C11.625 7.82119 11.3484 8.48887 10.8562 8.98116C10.3639 9.47344 9.69619 9.75 9 9.75Z" fill="#231F20"/>
</svg>
