<svg width="251" height="84" viewBox="0 0 251 84" fill="none" xmlns="http://www.w3.org/2000/svg">
<g clip-path="url(#clip0_1754_1109)">
<path d="M230.87 0H15.7268C14.259 0 13.0008 0.21 11.533 0.42C10.2749 0.63 8.80702 1.05 7.54887 1.68C6.29073 2.31 5.24227 3.15 4.19382 4.2C3.14536 5.25 2.3066 6.3 1.67753 7.56C1.04845 8.82 0.629073 10.29 0.419382 11.55C0.209691 13.02 0 14.49 0 15.75V68.04C0 69.51 0.209691 70.77 0.419382 72.24C0.629073 73.71 1.04845 74.97 1.67753 76.23C2.3066 77.7 3.14536 78.75 4.19382 79.8C5.24227 80.85 6.29073 81.69 7.54887 82.32C8.80702 82.95 10.0652 83.37 11.533 83.58C13.0008 83.79 14.259 84 15.7268 84H235.064C236.531 84 237.789 83.79 239.257 83.58C240.725 83.37 241.983 82.95 243.241 82.32C244.5 81.69 245.548 80.85 246.596 79.8C247.645 78.75 248.484 77.7 249.113 76.44C249.742 75.18 250.161 73.92 250.371 72.45C250.581 70.98 250.79 69.72 250.79 68.25V66.36V19.95V17.64V15.75C250.79 14.28 250.581 13.02 250.371 11.55C250.161 10.08 249.742 8.82 249.113 7.56C247.855 5.04 245.758 2.94 243.241 1.68C241.983 1.05 240.725 0.63 239.257 0.42C237.789 0.21 236.531 0 235.064 0H230.87V0Z" fill="#A6A6A6"/>
<path d="M17.6142 82.1101H15.727C14.4689 82.1101 13.001 81.9001 11.7429 81.6901C10.4848 81.4801 9.4363 81.0601 8.17815 80.6401C7.1297 80.0101 6.08124 79.3801 5.24248 78.5401C4.40372 77.7001 3.56495 76.6501 3.14557 75.6001C2.5165 74.5501 2.30681 73.2901 2.09712 72.0301C1.88743 70.7701 1.67773 69.5101 1.67773 68.0401V17.6401V15.7501C1.67773 14.4901 1.88743 13.0201 2.09712 11.7601C2.30681 10.7101 2.72619 9.45014 3.35526 8.40014C3.98433 7.35014 4.61341 6.30014 5.45217 5.46014C6.29093 4.62014 7.33939 3.99014 8.38784 3.36014C9.4363 2.73014 10.6944 2.52014 11.9526 2.31014C13.2107 2.10014 14.4689 1.89014 15.9367 1.89014H235.273C236.532 1.89014 237.79 2.10014 239.258 2.31014C240.516 2.52014 241.564 2.94014 242.822 3.36014C244.919 4.41014 246.806 6.30014 247.855 8.40014C248.484 9.45014 248.694 10.7101 248.903 11.7601C249.113 13.0201 249.323 14.4901 249.323 15.7501V68.0401C249.323 69.3001 249.113 70.5601 248.903 72.0301C248.694 73.2901 248.274 74.3401 247.855 75.6001C247.226 76.6501 246.597 77.7001 245.758 78.5401C244.919 79.3801 243.871 80.2201 242.822 80.6401C241.774 81.2701 240.516 81.6901 239.258 81.6901C237.999 81.9001 236.741 82.1101 235.273 82.1101H17.6142Z" fill="black"/>
<path d="M52.003 42.63C52.003 39.06 53.8903 35.7 57.0356 33.81C55.1484 31.08 52.003 29.4 48.648 29.19C45.0832 28.77 41.7282 31.29 39.841 31.29C37.9538 31.29 35.2278 29.19 32.2921 29.19C28.308 29.4 24.7432 31.5 22.856 34.86C18.8719 41.79 21.8076 52.29 25.7917 57.96C27.6789 60.69 29.9855 63.84 32.9212 63.84C35.8568 63.63 36.9053 61.95 40.47 61.95C44.0348 61.95 44.8735 63.84 48.0189 63.84C51.1643 63.84 53.0515 61.11 54.9387 58.17C56.4065 56.28 57.455 53.97 58.0841 51.66C54.3096 50.4 52.003 46.62 52.003 42.63ZM46.1317 25.62C47.8092 23.52 48.648 21 48.4383 18.27C45.922 18.48 43.4057 19.74 41.7282 21.84C40.0507 23.73 39.2119 26.25 39.4216 28.98C42.1476 28.98 44.4542 27.72 46.1317 25.62ZM88.6989 56.91H78.8435L76.5369 64.05H72.3431L81.7791 38.01H85.973L95.4091 64.05H91.2152L88.6989 56.91ZM79.8919 53.76H87.8602L83.8761 42.21H83.6664L79.8919 53.76ZM115.749 54.6C115.749 60.48 112.604 64.26 107.781 64.26C105.265 64.47 102.958 63 101.909 60.9V70.35H97.9253V45.15H101.7V48.3C102.958 46.2 105.265 44.94 107.781 44.94C112.394 44.73 115.749 48.72 115.749 54.6ZM111.555 54.6C111.555 50.82 109.668 48.3 106.523 48.3C103.587 48.3 101.49 50.82 101.49 54.6C101.49 58.38 103.587 60.9 106.523 60.9C109.668 60.9 111.555 58.38 111.555 54.6ZM136.508 54.6C136.508 60.48 133.363 64.26 128.54 64.26C126.024 64.47 123.717 63 122.669 60.9V70.35H118.685V45.15H122.459V48.3C123.717 46.2 126.024 44.94 128.54 44.94C133.363 44.73 136.508 48.72 136.508 54.6ZM132.524 54.6C132.524 50.82 130.637 48.3 127.492 48.3C124.556 48.3 122.459 50.82 122.459 54.6C122.459 58.38 124.556 60.9 127.492 60.9C130.637 60.9 132.524 58.38 132.524 54.6ZM150.348 56.7C150.558 59.22 153.074 60.9 156.639 60.9C159.994 60.9 162.3 59.22 162.3 56.91C162.3 54.81 160.833 53.76 157.478 52.92L154.123 52.08C149.3 51.03 147.203 48.72 147.203 45.15C147.203 40.74 151.187 37.59 156.639 37.59C162.091 37.59 165.865 40.74 166.075 45.15H162.091C161.881 42.63 159.784 40.95 156.639 40.95C153.493 40.95 151.397 42.63 151.397 44.94C151.397 46.83 152.864 47.88 156.219 48.72L159.155 49.35C164.397 50.61 166.704 52.71 166.704 56.49C166.704 61.32 162.93 64.47 156.639 64.47C150.767 64.47 146.993 61.53 146.783 56.7H150.348ZM174.672 40.53V44.94H178.237V48.09H174.672V58.59C174.672 60.27 175.301 60.9 176.979 60.9H178.237V64.05C177.608 64.26 176.769 64.26 176.14 64.26C172.366 64.26 170.898 62.79 170.898 59.22V48.3H168.172V45.15H170.898V40.74H174.672V40.53ZM180.544 54.6C180.544 48.72 184.108 44.94 189.56 44.94C195.012 44.94 198.577 48.72 198.577 54.6C198.577 60.69 195.012 64.26 189.56 64.26C183.899 64.26 180.544 60.48 180.544 54.6ZM194.593 54.6C194.593 50.4 192.706 48.09 189.56 48.09C186.415 48.09 184.528 50.4 184.528 54.6C184.528 58.8 186.415 61.11 189.56 61.11C192.706 61.11 194.593 58.59 194.593 54.6ZM201.722 44.94H205.497V48.3C205.916 46.2 208.013 44.73 210.11 44.94C210.529 44.94 210.949 44.94 211.368 45.15V48.72C210.739 48.51 210.11 48.51 209.691 48.51C207.594 48.51 205.706 50.19 205.706 52.29V64.26H201.722V44.94ZM229.402 58.38C228.982 61.74 225.627 64.26 221.224 64.26C215.772 64.26 212.207 60.48 212.207 54.6C212.207 48.72 215.562 44.73 221.014 44.73C226.256 44.73 229.611 48.3 229.611 54.18V55.44H216.191V55.65C215.981 58.38 217.869 60.69 220.595 61.11H221.224C223.111 61.32 224.998 60.27 225.627 58.38H229.402ZM216.191 52.71H225.627C225.837 50.19 223.74 48.09 221.224 47.88H220.804C218.288 47.88 216.191 49.98 216.191 52.71Z" fill="white"/>
<path d="M79.2636 18.2701C82.409 18.0601 84.9252 20.3701 85.1349 23.3101V24.3601C85.1349 28.3501 83.038 30.6601 79.2636 30.6601H74.6504V18.0601L79.2636 18.2701ZM76.7473 29.1901H79.0539C81.1508 29.4001 83.038 27.7201 83.2477 25.4101V24.5701C83.4574 22.4701 81.9896 20.3701 79.8927 20.1601H76.7473V29.1901ZM87.4415 26.0401C87.2318 23.5201 89.1191 21.4201 91.4257 21.2101C93.942 21.0001 96.0389 22.8901 96.2486 25.2001V26.0401C96.4583 28.5601 94.7807 30.6601 92.2644 30.8701C89.7481 31.0801 87.6512 29.4001 87.4415 26.8801V26.0401ZM94.3613 26.0401C94.3613 23.9401 93.5226 22.8901 91.845 22.8901C90.1675 22.8901 89.3288 24.1501 89.3288 26.0401C89.3288 28.1401 90.1675 29.4001 91.845 29.4001C93.5226 29.4001 94.3613 28.1401 94.3613 26.0401ZM108.201 30.8701H106.314L104.427 23.9401H104.217L102.33 30.8701H100.442L97.9261 21.4201H99.8133L101.491 28.5601H101.701L103.588 21.4201H105.475L107.362 28.5601H107.572L109.249 21.4201H111.137L108.201 30.8701ZM113.024 21.4201H114.911V22.8901H115.121C115.54 21.8401 116.798 21.2101 117.847 21.2101C119.524 21.0001 120.992 22.2601 121.202 24.1501V30.8701H119.315V25.2001C119.315 23.7301 118.685 22.8901 117.218 22.8901C115.96 22.8901 114.911 23.7301 114.911 24.9901V30.8701H113.024V21.4201ZM123.928 17.6401H125.815V30.8701H123.928V17.6401ZM128.331 26.0401C128.122 23.5201 129.799 21.4201 132.315 21.2101C134.832 21.0001 136.929 22.6801 137.138 25.2001V26.0401C137.348 28.5601 135.67 30.6601 133.154 30.8701C130.638 31.0801 128.541 29.4001 128.331 26.8801V26.0401ZM135.461 26.0401C135.461 23.9401 134.622 22.8901 132.944 22.8901C131.267 22.8901 130.428 24.1501 130.428 26.0401C130.428 28.1401 131.267 29.4001 132.944 29.4001C134.412 29.4001 135.461 28.1401 135.461 26.0401ZM139.235 28.1401C139.235 26.4601 140.493 25.4101 142.8 25.4101L145.316 25.2001V24.3601C145.316 23.3101 144.687 22.8901 143.429 22.8901C142.381 22.8901 141.751 23.3101 141.542 23.9401H139.655C139.864 22.2601 141.332 21.2101 143.429 21.2101C145.736 21.2101 147.203 22.4701 147.203 24.3601V30.8701H145.316V29.6101H145.107C144.477 30.6601 143.429 31.0801 142.171 31.0801C140.703 31.2901 139.235 30.0301 139.026 28.5601C139.235 28.3501 139.235 28.3501 139.235 28.1401ZM145.316 27.3001V26.4601L143.01 26.6701C141.751 26.6701 141.122 27.3001 141.122 27.9301C141.122 28.7701 141.961 29.1901 142.8 29.1901C144.058 29.6101 145.107 28.7701 145.316 27.3001C145.316 27.5101 145.316 27.5101 145.316 27.3001ZM149.51 26.0401C149.51 23.1001 150.978 21.2101 153.494 21.2101C154.752 21.2101 155.801 21.8401 156.43 22.8901H156.64V17.6401H158.527V30.8701H156.64V29.4001H156.43C155.801 30.4501 154.752 31.0801 153.494 31.0801C151.188 31.0801 149.51 29.1901 149.51 26.0401ZM151.607 26.0401C151.607 28.1401 152.446 29.1901 154.123 29.1901C155.801 29.1901 156.64 27.9301 156.64 26.0401C156.64 24.1501 155.591 22.8901 154.123 22.8901C152.446 22.8901 151.607 24.1501 151.607 26.0401ZM166.076 26.0401C165.866 23.5201 167.543 21.4201 170.06 21.2101C172.576 21.0001 174.673 22.6801 174.883 25.2001V26.0401C175.092 28.5601 173.415 30.6601 170.899 30.8701C168.382 31.0801 166.285 29.4001 166.076 26.8801V26.0401ZM173.205 26.0401C173.205 23.9401 172.366 22.8901 170.689 22.8901C169.011 22.8901 168.173 24.1501 168.173 26.0401C168.173 28.1401 169.011 29.4001 170.689 29.4001C172.157 29.4001 173.205 28.1401 173.205 26.0401ZM177.609 21.4201H179.496V22.8901H179.706C180.125 21.8401 181.383 21.2101 182.432 21.2101C184.109 21.0001 185.577 22.2601 185.787 24.1501V30.8701H183.899V25.2001C183.899 23.7301 183.27 22.8901 181.802 22.8901C180.544 22.8901 179.496 23.7301 179.496 24.9901V30.8701H177.609V21.4201ZM196.061 19.1101V21.4201H198.158V23.1001H196.061V27.9301C196.061 28.9801 196.481 29.4001 197.32 29.4001H197.949V30.8701H196.9C194.803 30.8701 193.965 30.2401 193.965 28.3501V23.1001H192.497V21.6301H193.965V19.1101H196.061ZM200.675 17.6401H202.562V22.8901H202.772C203.191 21.8401 204.449 21.0001 205.707 21.2101C207.385 21.2101 208.853 22.4701 209.062 24.1501V30.8701H207.175V25.2001C207.175 23.7301 206.546 22.8901 205.078 22.8901C203.82 22.8901 202.772 23.7301 202.772 24.9901V30.8701H200.884V17.6401H200.675ZM219.757 28.3501C219.337 30.0301 217.45 31.2901 215.772 31.0801C213.466 31.0801 211.369 29.1901 211.369 26.8801V26.2501C210.949 23.9401 212.627 21.6301 215.143 21.4201H215.772C218.498 21.4201 219.966 23.3101 219.966 26.2501V26.8801H213.256V27.0901C213.046 28.5601 214.095 29.6101 215.563 29.8201H215.772C216.611 30.0301 217.66 29.4001 218.079 28.7701H219.757V28.3501ZM213.046 25.2001H217.869C217.869 23.9401 217.031 22.8901 215.772 22.6801H215.563C214.305 22.8901 213.046 23.9401 213.046 25.2001Z" fill="white"/>
</g>
<defs>
<clipPath id="clip0_1754_1109">
<rect width="251" height="84" fill="white"/>
</clipPath>
</defs>
</svg>
