<svg width="47" height="47" viewBox="0 0 47 47" fill="none" xmlns="http://www.w3.org/2000/svg">
<path d="M37.2077 9.7915H9.79102C8.23287 9.7915 6.73854 10.4105 5.63676 11.5123C4.53499 12.614 3.91602 14.1084 3.91602 15.6665V31.3332C3.91602 32.8913 4.53499 34.3856 5.63676 35.4874C6.73854 36.5892 8.23287 37.2082 9.79102 37.2082H37.2077C38.7658 37.2082 40.2602 36.5892 41.3619 35.4874C42.4637 34.3856 43.0827 32.8913 43.0827 31.3332V15.6665C43.0827 14.1084 42.4637 12.614 41.3619 11.5123C40.2602 10.4105 38.7658 9.7915 37.2077 9.7915ZM21.541 29.3748H13.7077C13.1883 29.3748 12.6902 29.1685 12.3229 28.8013C11.9557 28.434 11.7493 27.9359 11.7493 27.4165C11.7493 26.8971 11.9557 26.399 12.3229 26.0318C12.6902 25.6645 13.1883 25.4582 13.7077 25.4582H21.541C22.0604 25.4582 22.5585 25.6645 22.9258 26.0318C23.293 26.399 23.4993 26.8971 23.4993 27.4165C23.4993 27.9359 23.293 28.434 22.9258 28.8013C22.5585 29.1685 22.0604 29.3748 21.541 29.3748ZM33.291 29.3748H29.3743C28.855 29.3748 28.3569 29.1685 27.9896 28.8013C27.6223 28.434 27.416 27.9359 27.416 27.4165C27.416 26.8971 27.6223 26.399 27.9896 26.0318C28.3569 25.6645 28.855 25.4582 29.3743 25.4582H33.291C33.8104 25.4582 34.3085 25.6645 34.6758 26.0318C35.043 26.399 35.2493 26.8971 35.2493 27.4165C35.2493 27.9359 35.043 28.434 34.6758 28.8013C34.3085 29.1685 33.8104 29.3748 33.291 29.3748ZM39.166 17.6248H7.83268V15.6665C7.83268 15.1471 8.03901 14.649 8.40627 14.2818C8.77352 13.9145 9.27163 13.7082 9.79102 13.7082H37.2077C37.7271 13.7082 38.2252 13.9145 38.5924 14.2818C38.9597 14.649 39.166 15.1471 39.166 15.6665V17.6248Z" fill="white"/>
</svg>
