<svg width="47" height="47" viewBox="0 0 47 47" fill="none" xmlns="http://www.w3.org/2000/svg">
<path d="M37.7378 9.165C37.2907 8.84287 36.774 8.63067 36.2296 8.54561C35.6852 8.46055 35.1284 8.50502 34.6044 8.67542C33.2222 9.06412 31.7905 9.24884 30.3549 9.22375C28.2332 9.10859 26.1529 8.59017 24.2253 7.69625C21.844 6.59495 19.2682 5.97596 16.6465 5.875C10.9869 5.875 8.81318 7.83333 8.42152 8.1075C8.23412 8.29118 8.08555 8.51064 7.98463 8.75286C7.8837 8.99507 7.83249 9.2551 7.83402 9.5175V39.1667C7.83402 39.6861 8.04034 40.1842 8.4076 40.5514C8.77486 40.9187 9.27297 41.125 9.79235 41.125C10.3117 41.125 10.8098 40.9187 11.1771 40.5514C11.5444 40.1842 11.7507 39.6861 11.7507 39.1667V30.7458C13.3111 30.1484 14.977 29.8752 16.6465 29.9429C18.7682 30.0581 20.8485 30.5765 22.7761 31.4704C25.1574 32.5717 27.7332 33.1907 30.3549 33.2917C32.7156 33.3808 35.0641 32.9111 37.209 31.9208C37.7871 31.6493 38.2773 31.2207 38.6235 30.684C38.9698 30.1473 39.1582 29.5241 39.1674 28.8854V11.9654C39.1667 11.419 39.0368 10.8805 38.7883 10.3938C38.5399 9.90711 38.1799 9.48606 37.7378 9.165Z" fill="white"/>
</svg>
