<svg width="256" height="86" viewBox="0 0 256 86" fill="none" xmlns="http://www.w3.org/2000/svg">
<g clip-path="url(#clip0_1754_1115)">
<path d="M246.519 86H9.48148C4.17185 86 0 81.27 0 75.25V10.75C0 4.73 4.17185 0 9.48148 0H246.519C251.828 0 256 4.73 256 10.75V75.25C256 81.27 251.828 86 246.519 86Z" fill="black"/>
<path d="M246.519 1.72C250.88 1.72 254.483 5.805 254.483 10.75V75.25C254.483 80.195 250.88 84.28 246.519 84.28H9.48148C5.12 84.28 1.51704 80.195 1.51704 75.25V10.75C1.51704 5.805 5.12 1.72 9.48148 1.72H246.519ZM246.519 0H9.48148C4.17185 0 0 4.945 0 10.75V75.25C0 81.27 4.17185 86 9.48148 86H246.519C251.828 86 256 81.27 256 75.25V10.75C256 4.945 251.828 0 246.519 0Z" fill="#A6A6A6"/>
<path d="M89.8836 21.93C89.8836 23.65 89.5044 25.155 88.5562 26.23C87.4185 27.52 86.091 28.165 84.3844 28.165C82.6777 28.165 81.3503 27.52 80.2125 26.23C79.0747 24.94 78.5059 23.435 78.5059 21.5C78.5059 19.565 79.0747 18.06 80.2125 16.77C81.3503 15.48 82.6777 14.835 84.3844 14.835C85.1429 14.835 85.9014 15.05 86.6599 15.48C87.4185 15.91 87.9873 16.34 88.3666 16.985L87.4184 18.06C86.6599 16.985 85.7118 16.555 84.3844 16.555C83.2466 16.555 82.1088 16.985 81.3503 18.06C80.4022 18.92 80.0229 20.21 80.0229 21.715C80.0229 23.22 80.4022 24.51 81.3503 25.37C82.2985 26.23 83.2466 26.875 84.3844 26.875C85.7118 26.875 86.6599 26.445 87.6081 25.37C88.177 24.725 88.5562 23.865 88.5562 22.79H84.3844V21.07H89.8836V21.93V21.93ZM98.6066 16.555H93.4866V20.64H98.2273V22.145H93.4866V26.23H98.6066V27.95H91.9696V15.05H98.6066V16.555ZM104.864 27.95H103.347V16.555H100.124V15.05H108.088V16.555H104.864V27.95ZM113.587 27.95V15.05H115.104V27.95H113.587ZM121.552 27.95H120.035V16.555H116.811V15.05H124.586V16.555H121.362L121.552 27.95ZM139.567 26.23C138.429 27.52 137.101 28.165 135.395 28.165C133.688 28.165 132.361 27.52 131.223 26.23C130.085 24.94 129.516 23.435 129.516 21.5C129.516 19.565 130.085 18.06 131.223 16.77C132.361 15.48 133.688 14.835 135.395 14.835C137.101 14.835 138.429 15.48 139.567 16.77C140.704 18.06 141.273 19.565 141.273 21.5C141.273 23.435 140.704 24.94 139.567 26.23ZM132.361 25.155C133.119 26.015 134.257 26.66 135.395 26.66C136.533 26.66 137.67 26.23 138.429 25.155C139.187 24.295 139.756 23.005 139.756 21.5C139.756 19.995 139.377 18.705 138.429 17.845C137.67 16.985 136.533 16.34 135.395 16.34C134.257 16.34 133.119 16.77 132.361 17.845C131.602 18.705 131.033 19.995 131.033 21.5C131.033 23.005 131.413 24.295 132.361 25.155ZM143.359 27.95V15.05H145.066L150.565 25.155V15.05H152.082V27.95H150.565L144.687 17.415V27.95H143.359V27.95Z" fill="white" stroke="white" stroke-width="0.2" stroke-miterlimit="10"/>
<path d="M129.138 46.8701C124.586 46.8701 120.983 50.7401 120.983 56.1151C120.983 61.2751 124.586 65.3601 129.138 65.3601C133.689 65.3601 137.292 61.4901 137.292 56.1151C137.292 50.5251 133.689 46.8701 129.138 46.8701ZM129.138 61.4901C126.672 61.4901 124.586 59.1251 124.586 55.9001C124.586 52.6751 126.672 50.3101 129.138 50.3101C131.603 50.3101 133.689 52.4601 133.689 55.9001C133.689 59.1251 131.603 61.4901 129.138 61.4901ZM111.502 46.8701C106.951 46.8701 103.348 50.7401 103.348 56.1151C103.348 61.2751 106.951 65.3601 111.502 65.3601C116.053 65.3601 119.656 61.4901 119.656 56.1151C119.656 50.5251 116.053 46.8701 111.502 46.8701ZM111.502 61.4901C109.037 61.4901 106.951 59.1251 106.951 55.9001C106.951 52.6751 109.037 50.3101 111.502 50.3101C113.967 50.3101 116.053 52.4601 116.053 55.9001C116.053 59.1251 113.967 61.4901 111.502 61.4901ZM90.4531 49.6651V53.5351H98.6071C98.4175 55.6851 97.659 57.4051 96.7108 58.4801C95.5731 59.7701 93.6768 61.2751 90.4531 61.2751C85.3331 61.2751 81.5405 56.7601 81.5405 50.9551C81.5405 45.1501 85.5227 40.6351 90.4531 40.6351C93.1079 40.6351 95.1938 41.9251 96.7108 43.4301L99.176 40.6351C97.0901 38.4851 94.4353 36.7651 90.6427 36.7651C83.816 36.7651 77.9375 43.2151 77.9375 50.9551C77.9375 58.6951 83.816 65.1451 90.6427 65.1451C94.4353 65.1451 97.0901 63.8551 99.3657 61.0601C101.641 58.4801 102.4 54.8251 102.4 52.0301C102.4 51.1701 102.4 50.3101 102.21 49.6651H90.4531V49.6651ZM176.545 52.6751C175.786 50.5251 173.89 46.8701 169.718 46.8701C165.546 46.8701 162.133 50.5251 162.133 56.1151C162.133 61.2751 165.546 65.3601 170.098 65.3601C173.7 65.3601 175.976 62.7801 176.735 61.2751L174.08 59.1251C173.132 60.6301 171.994 61.7051 170.098 61.7051C168.201 61.7051 167.063 60.8451 166.115 58.9101L176.924 53.7501L176.545 52.6751V52.6751ZM165.546 55.6851C165.546 52.2451 168.012 50.3101 169.718 50.3101C171.046 50.3101 172.373 51.1701 172.752 52.2451L165.546 55.6851ZM156.634 64.5001H160.237V37.6251H156.634V64.5001ZM150.945 48.8051C149.997 47.7301 148.48 46.6551 146.583 46.6551C142.601 46.6551 138.809 50.7401 138.809 55.9001C138.809 61.0601 142.412 64.9301 146.583 64.9301C148.48 64.9301 149.997 63.8551 150.755 62.7801H150.945V64.0701C150.945 67.5101 149.238 69.4451 146.583 69.4451C144.498 69.4451 142.98 67.7251 142.601 66.2201L139.567 67.7251C140.515 70.0901 142.791 73.1001 146.773 73.1001C150.945 73.1001 154.358 70.3051 154.358 63.6401V47.3001H150.945V48.8051V48.8051ZM146.773 61.4901C144.308 61.4901 142.222 59.1251 142.222 55.9001C142.222 52.6751 144.308 50.3101 146.773 50.3101C149.238 50.3101 151.135 52.6751 151.135 55.9001C151.135 59.1251 149.238 61.4901 146.773 61.4901ZM193.043 37.6251H184.509V64.5001H188.112V54.3951H193.043C197.025 54.3951 200.818 51.1701 200.818 46.0101C200.818 40.8501 197.025 37.6251 193.043 37.6251V37.6251ZM193.232 50.5251H188.112V41.2801H193.232C195.887 41.2801 197.404 43.8601 197.404 45.7951C197.215 48.1601 195.698 50.5251 193.232 50.5251ZM215.04 46.6551C212.385 46.6551 209.73 47.9451 208.782 50.7401L212.006 52.2451C212.764 50.7401 213.902 50.3101 215.229 50.3101C217.126 50.3101 218.832 51.6001 219.022 53.7501V53.9651C218.453 53.5351 216.936 52.8901 215.419 52.8901C212.006 52.8901 208.592 55.0401 208.592 58.9101C208.592 62.5651 211.437 64.9301 214.471 64.9301C216.936 64.9301 218.074 63.6401 219.022 62.3501H219.212V64.5001H222.625V54.1801C222.246 49.4501 219.022 46.6551 215.04 46.6551V46.6551ZM214.66 61.4901C213.523 61.4901 211.816 60.8451 211.816 59.1251C211.816 56.9751 213.902 56.3301 215.609 56.3301C217.126 56.3301 217.884 56.7601 218.832 57.1901C218.453 59.7701 216.557 61.4901 214.66 61.4901V61.4901ZM234.572 47.3001L230.589 58.9101H230.4L226.228 47.3001H222.435L228.693 63.6401L225.09 72.6701H228.693L238.364 47.3001H234.572V47.3001ZM202.714 64.5001H206.317V37.6251H202.714V64.5001Z" fill="white"/>
<path d="M19.7214 16.125C19.1525 16.77 18.9629 17.845 18.9629 19.135V66.65C18.9629 67.94 19.3421 69.015 19.911 69.66L20.1007 69.875L43.6147 43.215V42.785L19.7214 16.125Z" fill="url(#paint0_linear_1754_1115)"/>
<path d="M51.2006 52.2452L43.4258 43.4302V42.7852L51.2006 33.9702L51.3902 34.1852L60.6821 40.2052C63.3369 41.9252 63.3369 44.7202 60.6821 46.4402L51.2006 52.2452Z" fill="url(#paint1_linear_1754_1115)"/>
<path d="M51.3889 52.03L43.4244 43L19.7207 69.875C20.6689 70.95 21.9963 70.95 23.7029 70.09L51.3889 52.03" fill="url(#paint2_linear_1754_1115)"/>
<path d="M51.3889 33.9702L23.7029 16.1252C21.9963 15.0502 20.6689 15.2652 19.7207 16.3402L43.4244 43.0002L51.3889 33.9702V33.9702Z" fill="url(#paint3_linear_1754_1115)"/>
<path opacity="0.2" d="M51.1992 51.8149L23.7029 69.4449C22.1859 70.5199 20.8585 70.3049 19.9103 69.4449L19.7207 69.6599L19.9103 69.8749C20.8585 70.7349 22.1859 70.9499 23.7029 69.8749L51.1992 51.8149Z" fill="black"/>
<path opacity="0.12" d="M19.7214 69.445C19.1525 68.8 18.9629 67.725 18.9629 66.435V66.65C18.9629 67.94 19.3421 69.015 19.911 69.66V69.445H19.7214ZM60.6814 45.795L51.1999 51.815L51.3896 52.03L60.6814 46.01C62.0088 45.15 62.5777 44.075 62.5777 43C62.5777 44.075 61.8192 44.935 60.6814 45.795V45.795Z" fill="black"/>
<path opacity="0.25" d="M23.7036 16.3402L60.6814 40.2052C61.8192 41.0652 62.5777 41.9252 62.5777 43.0002C62.5777 41.9252 62.0088 40.8502 60.6814 39.9902L23.7036 16.3402C21.0488 14.4052 18.9629 15.6952 18.9629 19.1352V19.3502C18.9629 16.1252 21.0488 14.6202 23.7036 16.3402Z" fill="white"/>
</g>
<defs>
<linearGradient id="paint0_linear_1754_1115" x1="41.3297" y1="18.7158" x2="5.52912" y2="50.2899" gradientUnits="userSpaceOnUse">
<stop stop-color="#00A0FF"/>
<stop offset="0.007" stop-color="#00A1FF"/>
<stop offset="0.26" stop-color="#00BEFF"/>
<stop offset="0.512" stop-color="#00D2FF"/>
<stop offset="0.76" stop-color="#00DFFF"/>
<stop offset="1" stop-color="#00E3FF"/>
</linearGradient>
<linearGradient id="paint1_linear_1754_1115" x1="64.1599" y1="43.1077" x2="18.2752" y2="43.1077" gradientUnits="userSpaceOnUse">
<stop stop-color="#FFE000"/>
<stop offset="0.409" stop-color="#FFBD00"/>
<stop offset="0.775" stop-color="#FFA500"/>
<stop offset="1" stop-color="#FF9C00"/>
</linearGradient>
<linearGradient id="paint2_linear_1754_1115" x1="47.0577" y1="47.9127" x2="-1.48879" y2="90.7307" gradientUnits="userSpaceOnUse">
<stop stop-color="#FF3A44"/>
<stop offset="1" stop-color="#C31162"/>
</linearGradient>
<linearGradient id="paint3_linear_1754_1115" x1="13.7682" y1="0.456014" x2="35.4476" y2="19.5771" gradientUnits="userSpaceOnUse">
<stop stop-color="#32A071"/>
<stop offset="0.069" stop-color="#2DA771"/>
<stop offset="0.476" stop-color="#15CF74"/>
<stop offset="0.801" stop-color="#06E775"/>
<stop offset="1" stop-color="#00F076"/>
</linearGradient>
<clipPath id="clip0_1754_1115">
<rect width="256" height="86" fill="white"/>
</clipPath>
</defs>
</svg>
