<svg width="18" height="18" viewBox="0 0 18 18" fill="none" xmlns="http://www.w3.org/2000/svg">
<path d="M10.2544 16.4997H10.2094C10.0444 16.4898 9.88722 16.4256 9.76243 16.317C9.63765 16.2085 9.55222 16.0618 9.51944 15.8997L8.36444 10.2222C8.33505 10.0781 8.26392 9.9458 8.1599 9.84178C8.05589 9.73777 7.92358 9.66664 7.77945 9.63724L2.10195 8.48224C1.93955 8.44999 1.79239 8.3649 1.68341 8.24025C1.57444 8.11561 1.50977 7.9584 1.49949 7.79315C1.48922 7.6279 1.53391 7.46389 1.62661 7.32671C1.71931 7.18952 1.85479 7.08686 2.01195 7.03474L14.0119 3.03724C14.1466 2.98162 14.2946 2.96645 14.4378 2.99358C14.581 3.02071 14.7132 3.08896 14.8182 3.19C14.9232 3.29104 14.9965 3.42048 15.0291 3.56251C15.0618 3.70454 15.0523 3.853 15.0019 3.98974L11.0044 15.9897C10.9523 16.145 10.8507 16.2789 10.7153 16.371C10.5798 16.463 10.418 16.5083 10.2544 16.4997Z" fill="#7E7E7E"/>
</svg>
