<svg width="18" height="18" viewBox="0 0 18 18" fill="none" xmlns="http://www.w3.org/2000/svg">
<path d="M11.3641 6.29983C10.7892 6.29786 10.2196 6.40925 9.6879 6.62764C9.15617 6.84602 8.67271 7.16712 8.26519 7.57254C7.85767 7.97797 7.5341 8.45977 7.31298 8.99038C7.09187 9.52099 6.97755 10.09 6.97656 10.6648V15.0748C6.97656 15.2539 7.04768 15.4255 7.17427 15.5521C7.30085 15.6787 7.47254 15.7498 7.65156 15.7498H9.22656C9.40558 15.7498 9.57727 15.6787 9.70386 15.5521C9.83045 15.4255 9.90156 15.2539 9.90156 15.0748V10.6648C9.90141 10.4604 9.94436 10.2582 10.0276 10.0715C10.1108 9.88471 10.2325 9.71761 10.3846 9.58104C10.5368 9.44446 10.716 9.34149 10.9106 9.27882C11.1052 9.21615 11.3108 9.1952 11.5141 9.21733C11.8786 9.26324 12.2135 9.44133 12.4555 9.71781C12.6974 9.9943 12.8294 10.35 12.8266 10.7173V15.0748C12.8266 15.2539 12.8977 15.4255 13.0243 15.5521C13.1509 15.6787 13.3225 15.7498 13.5016 15.7498H15.0766C15.2556 15.7498 15.4273 15.6787 15.5539 15.5521C15.6804 15.4255 15.7516 15.2539 15.7516 15.0748V10.6648C15.7506 10.09 15.6363 9.52099 15.4151 8.99038C15.194 8.45977 14.8705 7.97797 14.4629 7.57254C14.0554 7.16712 13.572 6.84602 13.0402 6.62764C12.5085 6.40925 11.9389 6.29786 11.3641 6.29983Z" fill="#231F20"/>
<path d="M4.95195 6.9751H2.92695C2.55416 6.9751 2.25195 7.27731 2.25195 7.6501V15.0751C2.25195 15.4479 2.55416 15.7501 2.92695 15.7501H4.95195C5.32475 15.7501 5.62695 15.4479 5.62695 15.0751V7.6501C5.62695 7.27731 5.32475 6.9751 4.95195 6.9751Z" fill="#231F20"/>
<path d="M3.93945 5.625C4.87143 5.625 5.62695 4.86948 5.62695 3.9375C5.62695 3.00552 4.87143 2.25 3.93945 2.25C3.00747 2.25 2.25195 3.00552 2.25195 3.9375C2.25195 4.86948 3.00747 5.625 3.93945 5.625Z" fill="#231F20"/>
</svg>
