<svg width="47" height="47" viewBox="0 0 47 47" fill="none" xmlns="http://www.w3.org/2000/svg">
<path d="M39.97 11.5347L32.1366 8.00975H32.0387H31.8037H31.5687H31.0791H30.8833H30.6287H30.5308L23.5004 11.1627L16.47 8.00975H16.3721L16.1371 7.8335H15.9021H15.4125H15.2166H14.9621L7.12873 11.3585C6.73802 11.5082 6.40553 11.7791 6.17998 12.1315C5.95443 12.4839 5.84769 12.8993 5.87539 13.3168V37.2085C5.87594 37.5362 5.95869 37.8585 6.11608 38.1459C6.27346 38.4332 6.50044 38.6766 6.77622 38.8535C7.09143 39.0571 7.45849 39.1659 7.83372 39.1668C8.11082 39.1655 8.38449 39.1055 8.63664 38.9906L15.6671 35.8377L22.6975 38.9906H22.7954C23.0161 39.0938 23.2568 39.1472 23.5004 39.1472C23.744 39.1472 23.9847 39.0938 24.2054 38.9906H24.3033L31.3337 35.8377L38.3641 38.9906C38.6163 39.1055 38.89 39.1655 39.1671 39.1668C39.5423 39.1659 39.9094 39.0571 40.2246 38.8535C40.5003 38.6766 40.7273 38.4332 40.8847 38.1459C41.0421 37.8585 41.1248 37.5362 41.1254 37.2085V13.3168C41.1246 12.9401 41.0152 12.5716 40.8103 12.2556C40.6053 11.9395 40.3136 11.6892 39.97 11.5347ZM17.6254 12.8272L21.5421 14.5702V34.1535L17.6254 32.4106V12.8272ZM37.2087 34.1731L33.2921 32.4302V12.8468L37.2087 14.5897V34.1731Z" fill="white"/>
</svg>
