<svg width="18" height="18" viewBox="0 0 18 18" fill="none" xmlns="http://www.w3.org/2000/svg">
<path d="M6.05924 15.0001C7.16826 15.0372 8.27347 14.8516 9.30954 14.4543C10.3456 14.057 11.2915 13.4561 12.0914 12.687C12.8913 11.9179 13.5289 10.9962 13.9665 9.97651C14.4041 8.9568 14.6328 7.85972 14.6392 6.75009C15.1475 6.12115 15.5249 5.39697 15.7492 4.62009C15.766 4.55871 15.7646 4.4938 15.7453 4.43317C15.7261 4.37255 15.6897 4.31879 15.6405 4.27837C15.5914 4.23795 15.5316 4.2126 15.4684 4.20536C15.4052 4.19813 15.3412 4.20932 15.2842 4.23759C15.0183 4.36558 14.719 4.40693 14.4284 4.3558C14.1377 4.30467 13.8705 4.16365 13.6642 3.95259C13.401 3.66428 13.0825 3.43174 12.7277 3.26876C12.3729 3.10579 11.989 3.01568 11.5987 3.00379C11.2084 2.9919 10.8198 3.05847 10.4557 3.19955C10.0916 3.34062 9.75959 3.55334 9.47924 3.82509C9.09538 4.19684 8.81423 4.66156 8.6631 5.1741C8.51196 5.68664 8.49599 6.22956 8.61674 6.75009C6.10424 6.90009 4.37924 5.70759 2.99924 4.07259C2.95778 4.02564 2.90355 3.99178 2.84316 3.97515C2.78278 3.95851 2.71886 3.95981 2.65921 3.9789C2.59955 3.99799 2.54675 4.03404 2.50724 4.08264C2.46774 4.13124 2.44324 4.1903 2.43674 4.25259C2.17384 5.71091 2.36348 7.21475 2.9802 8.56215C3.59692 9.90954 4.61117 11.0359 5.88674 11.7901C5.03147 12.771 3.83039 13.3836 2.53424 13.5001C2.4648 13.5116 2.40069 13.5445 2.3509 13.5943C2.30111 13.6441 2.26812 13.7081 2.25655 13.7776C2.24497 13.847 2.2554 13.9183 2.28637 13.9815C2.31733 14.0447 2.36729 14.0967 2.42924 14.1301C3.55688 14.6936 4.79866 14.9912 6.05924 15.0001" fill="#231F20"/>
</svg>
