<svg width="81" height="18" viewBox="0 0 81 18" fill="none" xmlns="http://www.w3.org/2000/svg">
<path d="M29.4091 14V2.36364H36.4318V3.61364H30.8182V7.54545H36.0682V8.79545H30.8182V12.75H36.5227V14H29.4091ZM40.1307 8.75V14H38.7898V5.27273H40.0852V6.63636H40.1989C40.4034 6.19318 40.714 5.83712 41.1307 5.56818C41.5473 5.29545 42.0852 5.15909 42.7443 5.15909C43.3352 5.15909 43.8523 5.2803 44.2955 5.52273C44.7386 5.76136 45.0833 6.125 45.3295 6.61364C45.5758 7.09848 45.6989 7.71212 45.6989 8.45455V14H44.358V8.54545C44.358 7.85985 44.1799 7.32576 43.8239 6.94318C43.4678 6.55682 42.9792 6.36364 42.358 6.36364C41.9299 6.36364 41.5473 6.45644 41.2102 6.64205C40.8769 6.82765 40.6136 7.09848 40.4205 7.45455C40.2273 7.81061 40.1307 8.24242 40.1307 8.75ZM51.6719 17.4545C51.0241 17.4545 50.4673 17.3712 50.0014 17.2045C49.5355 17.0417 49.1473 16.8258 48.8366 16.5568C48.5298 16.2917 48.2855 16.0076 48.1037 15.7045L49.1719 14.9545C49.2931 15.1136 49.4465 15.2955 49.6321 15.5C49.8177 15.7083 50.0715 15.8883 50.3935 16.0398C50.7192 16.1951 51.1454 16.2727 51.6719 16.2727C52.3764 16.2727 52.9579 16.1023 53.4162 15.7614C53.8745 15.4205 54.1037 14.8864 54.1037 14.1591V12.3864H53.9901C53.8916 12.5455 53.7514 12.7424 53.5696 12.9773C53.3916 13.2083 53.134 13.4148 52.7969 13.5966C52.4635 13.7746 52.0128 13.8636 51.4446 13.8636C50.7401 13.8636 50.1075 13.697 49.5469 13.3636C48.9901 13.0303 48.5488 12.5455 48.223 11.9091C47.901 11.2727 47.7401 10.5 47.7401 9.59091C47.7401 8.69697 47.8973 7.91856 48.2116 7.25568C48.526 6.58901 48.9635 6.07386 49.5241 5.71023C50.0848 5.3428 50.7325 5.15909 51.4673 5.15909C52.0355 5.15909 52.4863 5.25379 52.8196 5.44318C53.1567 5.62879 53.4143 5.84091 53.5923 6.07955C53.7741 6.31439 53.9143 6.50758 54.0128 6.65909H54.1491V5.27273H55.4446V14.25C55.4446 15 55.2741 15.6098 54.9332 16.0795C54.5961 16.553 54.1416 16.8996 53.5696 17.1193C53.0014 17.3428 52.3688 17.4545 51.6719 17.4545ZM51.6264 12.6591C52.1643 12.6591 52.6188 12.536 52.9901 12.2898C53.3613 12.0436 53.6435 11.6894 53.8366 11.2273C54.0298 10.7652 54.1264 10.2121 54.1264 9.56818C54.1264 8.93939 54.0317 8.38447 53.8423 7.90341C53.6529 7.42235 53.3726 7.04545 53.0014 6.77273C52.6302 6.5 52.1719 6.36364 51.6264 6.36364C51.0582 6.36364 50.5848 6.50758 50.206 6.79545C49.831 7.08333 49.5488 7.4697 49.3594 7.95455C49.1738 8.43939 49.081 8.97727 49.081 9.56818C49.081 10.1742 49.1757 10.7102 49.3651 11.1761C49.5582 11.6383 49.8423 12.0019 50.2173 12.267C50.5961 12.5284 51.0658 12.6591 51.6264 12.6591ZM59.2401 2.36364V14H57.8991V2.36364H59.2401ZM61.696 14V5.27273H63.0369V14H61.696ZM62.3778 3.81818C62.1165 3.81818 61.8911 3.72917 61.7017 3.55114C61.5161 3.37311 61.4233 3.15909 61.4233 2.90909C61.4233 2.65909 61.5161 2.44508 61.7017 2.26705C61.8911 2.08902 62.1165 2 62.3778 2C62.6392 2 62.8627 2.08902 63.0483 2.26705C63.2377 2.44508 63.3324 2.65909 63.3324 2.90909C63.3324 3.15909 63.2377 3.37311 63.0483 3.55114C62.8627 3.72917 62.6392 3.81818 62.3778 3.81818ZM71.6747 7.22727L70.4702 7.56818C70.3944 7.36742 70.2827 7.17235 70.1349 6.98295C69.991 6.78977 69.794 6.63068 69.544 6.50568C69.294 6.38068 68.974 6.31818 68.5838 6.31818C68.0497 6.31818 67.6046 6.44129 67.2486 6.6875C66.8963 6.92992 66.7202 7.23864 66.7202 7.61364C66.7202 7.94697 66.8414 8.21023 67.0838 8.40341C67.3262 8.59659 67.705 8.75758 68.2202 8.88636L69.5156 9.20455C70.2959 9.39394 70.8774 9.68371 71.2599 10.0739C71.6425 10.4602 71.8338 10.9583 71.8338 11.5682C71.8338 12.0682 71.6899 12.5152 71.402 12.9091C71.1179 13.303 70.7202 13.6136 70.2088 13.8409C69.6974 14.0682 69.1027 14.1818 68.4247 14.1818C67.5346 14.1818 66.7978 13.9886 66.2145 13.6023C65.6312 13.2159 65.2618 12.6515 65.1065 11.9091L66.3793 11.5909C66.5005 12.0606 66.7296 12.4129 67.0668 12.6477C67.4077 12.8826 67.8527 13 68.402 13C69.027 13 69.5232 12.8674 69.8906 12.6023C70.2618 12.3333 70.4474 12.0114 70.4474 11.6364C70.4474 11.3333 70.3414 11.0795 70.1293 10.875C69.9171 10.6667 69.5914 10.5114 69.152 10.4091L67.6974 10.0682C66.8982 9.87879 66.3111 9.58523 65.9361 9.1875C65.5649 8.78598 65.3793 8.28409 65.3793 7.68182C65.3793 7.18939 65.5175 6.75379 65.794 6.375C66.0743 5.99621 66.455 5.69886 66.9361 5.48295C67.4209 5.26705 67.9702 5.15909 68.5838 5.15909C69.4474 5.15909 70.1255 5.34848 70.6179 5.72727C71.1141 6.10606 71.4664 6.60606 71.6747 7.22727ZM75.1932 8.75V14H73.8523V2.36364H75.1932V6.63636H75.3068C75.5114 6.18561 75.8182 5.82765 76.2273 5.5625C76.6402 5.29356 77.1894 5.15909 77.875 5.15909C78.4697 5.15909 78.9905 5.27841 79.4375 5.51705C79.8845 5.75189 80.2311 6.11364 80.4773 6.60227C80.7273 7.08712 80.8523 7.70455 80.8523 8.45455V14H79.5114V8.54545C79.5114 7.85227 79.3314 7.31629 78.9716 6.9375C78.6155 6.55492 78.1212 6.36364 77.4886 6.36364C77.0492 6.36364 76.6553 6.45644 76.3068 6.64205C75.9621 6.82765 75.6894 7.09848 75.4886 7.45455C75.2917 7.81061 75.1932 8.24242 75.1932 8.75Z" fill="#3F3F3F"/>
<path d="M16.5 9C16.5 8.01509 16.306 7.03982 15.9291 6.12987C15.5522 5.21993 14.9997 4.39314 14.3033 3.6967C13.6069 3.00026 12.7801 2.44781 11.8701 2.0709C10.9602 1.69399 9.98491 1.5 9 1.5C7.01088 1.5 5.10322 2.29018 3.6967 3.6967C2.29018 5.10322 1.5 7.01088 1.5 9C1.5 10.9891 2.29018 12.8968 3.6967 14.3033C5.10322 15.7098 7.01088 16.5 9 16.5C10.9891 16.5 12.8968 15.7098 14.3033 14.3033C15.7098 12.8968 16.5 10.9891 16.5 9ZM14.9475 8.25H12.75C12.6263 6.48611 12.022 4.78976 11.0025 3.345C12.0498 3.71698 12.9733 4.37255 13.6699 5.23863C14.3664 6.10471 14.8088 7.14725 14.9475 8.25ZM6.81 9.75H11.25C11.0581 11.6029 10.2683 13.3431 9 14.7075C7.73255 13.3488 6.96089 11.602 6.81 9.75ZM6.81 8.25C6.98466 6.40637 7.75319 4.66929 9 3.3C10.2785 4.65459 11.0701 6.39603 11.25 8.25H6.81ZM7.08 3.3225C6.05516 4.77527 5.4411 6.47754 5.3025 8.25H3.0525C3.19418 7.13362 3.64696 6.07959 4.35912 5.20828C5.07129 4.33697 6.01414 3.6835 7.08 3.3225ZM3.0525 9.75H5.3025C5.42602 11.521 6.03591 13.2235 7.065 14.67C6.00298 14.3072 5.06399 13.6539 4.3547 12.7842C3.64541 11.9145 3.19426 10.8633 3.0525 9.75ZM10.965 14.6625C11.9913 13.2155 12.608 11.5183 12.75 9.75H14.9625C14.8207 10.8602 14.3711 11.9086 13.6647 12.7767C12.9583 13.6448 12.0232 14.298 10.965 14.6625Z" fill="#231F20"/>
</svg>
